<?xml version="1.0" encoding="UTF-8" standalone="no"?>
<!-- Created with Inkscape (http://www.inkscape.org/) -->
<svg
   xmlns:svg="http://www.w3.org/2000/svg"
   xmlns="http://www.w3.org/2000/svg"
   version="1.0"
   width="800"
   height="405.073"
   viewBox="0 0 800 405.073"
   id="Layer_1"
   xml:space="preserve"><defs
   id="defs14" />
<path
   d="M 628.266,85.855 C 628.266,38.444 666.71,0 714.133,0 C 761.556,0 800,38.444 800,85.855 C 800,133.29 761.556,171.745 714.133,171.745 C 666.71,171.745 628.266,133.29 628.266,85.855 M 655.182,142.978 L 666.544,20.355 L 684.468,20.355 L 684.468,27.989 L 704.942,27.989 L 704.942,20.367 L 723.963,20.367 L 723.963,27.989 L 744.436,27.989 L 744.436,20.355 L 762.361,20.355 L 773.723,142.956 L 735.067,142.956 L 732.496,118.883 C 732.507,108.04 724.248,99.509 714.063,99.509 C 703.868,99.509 695.621,108.04 695.621,118.576 L 692.813,142.967 L 655.182,142.978 z M 695.24,63.955 C 695.24,53.76 703.501,45.523 713.683,45.523 C 723.868,45.523 732.115,53.759 732.115,63.955 C 732.115,74.138 723.868,82.386 713.683,82.386 C 703.501,82.386 695.24,74.138 695.24,63.955 z "
   style="fill:#fdb913;fill-rule:evenodd"
   id="path3" />
<polyline
   fill="#00599D"
   points="196.395,395.563 106.233,259.418 187.274,141.857 124.487,141.857 52.202,257.588 52.202,141.857   0,141.857 0,395.563 52.202,395.563 52.202,263.063 129.231,395.563 196.395,395.563 "
   id="polyline5"
   style="fill:#00599d" />
<path
   d="M 306.604,281.684 L 250.024,281.684 L 250.024,280.953 C 250.024,255.029 260.609,240.421 279.229,240.421 C 289.082,240.421 296.019,244.067 300.776,251.383 C 305.141,258.321 306.604,265.613 306.604,279.491 L 306.604,281.684 M 357.344,317.449 C 357.344,314.179 357.344,310.157 357.344,306.145 C 357.344,267.064 349.686,241.882 332.53,224.372 C 320.482,211.959 300.033,204.655 278.487,204.655 C 253.671,204.655 235.051,212.678 219.723,229.847 C 203.298,248.077 196.36,270.368 196.36,303.95 C 196.36,362.724 231.04,400.685 284.705,400.685 C 310.983,400.685 333.628,392.294 355.161,374.771 L 336.177,345.555 C 321.202,357.98 305.508,364.188 288.73,364.188 C 263.538,364.188 249.295,347.738 249.295,318.9 L 249.295,317.449 L 357.344,317.449 z "
   style="fill:#00599d;fill-rule:evenodd"
   id="path7" />
<path
   d="M 469.005,394.831 L 460.604,365.64 C 458.043,366.37 456.958,366.37 455.128,366.37 C 451.105,366.37 447.093,364.565 445.274,361.262 C 442.349,356.153 441.984,351.763 441.984,319.645 L 441.984,173.987 C 441.984,147.71 441.263,135.65 439.421,125.442 L 389.414,136.747 C 391.244,153.551 391.975,168.501 391.975,192.974 L 391.975,332.423 C 391.975,359.078 392.696,364.919 396.353,374.395 C 402.195,390.112 418.986,399.964 439.8,399.964 C 450.385,399.964 460.604,398.123 469.005,394.831"
   style="fill:#00599d"
   id="path9" />
<path
   d="M 579.828,313.803 L 579.109,353.957 C 571.803,361.993 562.671,366.737 553.549,366.737 C 541.136,366.737 532.015,356.884 532.015,342.263 C 532.015,319.997 543.685,313.802 577.644,313.802 L 579.828,313.802 M 645.175,375.139 C 628.749,362.725 627.286,353.957 627.653,333.52 L 628.75,270.722 C 629.117,250.638 628.02,244.81 625.471,237.153 C 618.167,216.326 596.62,204.656 565.233,204.656 C 548.077,204.656 532.382,207.935 514.116,215.606 C 500.984,221.081 493.68,224.727 483.827,230.933 L 504.631,265.967 C 524.701,252.48 542.968,244.81 558.66,244.81 C 576.538,244.81 580.56,251.748 580.56,272.552 L 580.56,280.221 C 576.538,279.856 573.269,279.856 569.61,279.856 C 510.104,279.856 479.802,300.304 479.802,344.094 C 479.802,381.345 502.435,402.513 544.052,402.513 C 559.392,402.513 572.526,398.867 581.657,392.295 C 585.316,389.735 589.328,386.1 592.974,382.442 C 597.729,391.928 607.947,400.318 619.251,405.073 L 645.175,375.139 z "
   style="fill:#00599d;fill-rule:evenodd"
   id="path11" />
</svg>